<svg xmlns="http://www.w3.org/2000/svg" viewBox="0 0 200 54.953"><defs><style>.a{fill:#f15a28;}.a,.b,.c,.e{fill-rule:evenodd;}.b{fill:#3fbfc4;}.c,.d{fill:#313130;}.e{fill:#78c265;}</style></defs><path class="a" d="M31.388,4.548,23.6,0,0,13.993V41.755l23.152,13.2V45.635l-15.3-8.777V18.572Z"/><path class="b" d="M91.387,29.5,75.9,39.043V66.138l22.516-13.9V24.668L84.168,16.4l-7.505,4.516Zm-.032,9.191V47.82L83.5,52.368V43.495Z" transform="translate(-51.763 -11.185)"/><g transform="translate(53.363 17.332)"><path class="c" d="M184.75,74.153a16.722,16.722,0,0,1-5.979.986q-10.972,0-10.972-10.59c0-6.678,3.657-10.049,10.972-10.049a17.453,17.453,0,0,1,5.979.986v3.4a14.113,14.113,0,0,0-5.692-1.145q-7.346,0-7.346,6.774c0,4.9,2.449,7.314,7.346,7.314a14.113,14.113,0,0,0,5.692-1.145Z" transform="translate(-167.8 -54.5)"/><path class="c" d="M229.3,86.92V72.1h6.742c3.021,0,4.548,1.336,4.548,3.975,0,1.813-1.177,3.276-3.53,4.452l4.707,6.424H238.3L233.784,80.5V79.224c2.64-.445,3.943-1.463,3.943-3.053,0-1.081-.6-1.654-1.844-1.654H232.13v12.4Z" transform="translate(-209.742 -66.503)"/><path class="c" d="M282.745,72.1v2.385H275.3v3.721h7.092v2.481H275.3v3.88h7.6v2.385H272.6V72.1Z" transform="translate(-239.272 -66.503)"/><path class="c" d="M318.788,84.566c3.085,0,4.611-1.813,4.611-5.438,0-3.085-1.526-4.611-4.611-4.611h-3.053V84.566ZM313,86.951V72.1h5.82c4.929,0,7.378,2.353,7.378,7.028,0,5.215-2.449,7.823-7.378,7.823Z" transform="translate(-266.824 -66.503)"/><path class="c" d="M371.877,72.1v2.385h-7.442v3.721h7.092v2.481H364.4v3.88H372v2.385H361.7V72.1Z" transform="translate(-300.037 -66.503)"/><path class="c" d="M402.1,86.951V72.1h2.767l7.823,10.813V72.1h2.64V86.951h-2.735L404.74,75.916V86.951Z" transform="translate(-327.589 -66.503)"/><path class="c" d="M464.239,86.111a12.387,12.387,0,0,1-4.357.731c-5.343,0-7.982-2.576-7.982-7.728,0-4.866,2.671-7.314,7.982-7.314a11.705,11.705,0,0,1,4.357.731v2.481a10.586,10.586,0,0,0-4.166-.827c-3.562,0-5.343,1.654-5.343,4.929q0,5.343,5.343,5.343a10.7,10.7,0,0,0,4.166-.827Z" transform="translate(-361.552 -66.298)"/><path class="c" d="M508.977,72.1v2.385h-7.442v3.721h7.092v2.481H501.5v3.88h7.632v2.385H498.8V72.1Z" transform="translate(-393.537 -66.503)"/><rect class="d" width="2.958" height="20.194" transform="translate(122.786 0.254)"/><path class="c" d="M580.255,72.441q6.488,0,6.488-7.632,0-6.488-6.488-6.488h-4.293v14.12ZM572.4,75.494V55.3h7.919c6.678,0,10.049,3.18,10.049,9.54q0,10.638-10.049,10.654Z" transform="translate(-443.731 -55.046)"/></g><path class="e" d="M49.7,80.2V63.57l7.346,4.166V84.464ZM54.5,61.98a3.18,3.18,0,1,1,3.18,3.212A3.238,3.238,0,0,1,54.5,61.98Z" transform="translate(-33.895 -40.101)"/></svg>